<?xml version="1.0" encoding="utf-8"?>
<!-- Generator: Adobe Illustrator 26.0.2, SVG Export Plug-In . SVG Version: 6.00 Build 0)  -->
<svg version="1.1" id="Livello_1" xmlns="http://www.w3.org/2000/svg" xmlns:xlink="http://www.w3.org/1999/xlink" x="0px" y="0px"
	 width="1143px" height="1133.9px" viewBox="0 0 1143 1133.9" style="enable-background:new 0 0 1143 1133.9;" xml:space="preserve"
	>
<style type="text/css">
	.st0{fill:#FFFFFF;}
	.st1{fill:#FFFFFF;stroke:#FFFFFF;stroke-miterlimit:10;}
	.st2{fill:#FFFFFF;stroke:#FFFFFF;stroke-width:2;stroke-linecap:round;stroke-linejoin:round;stroke-miterlimit:10;}
</style>
<path class="st0" d="M1123.7,988.7L660.3,62.1c-13.2-36.3-48-62.1-88.8-62.1c-38.3,0-71.2,22.8-86.1,55.5l0,0L14.1,997.8l0,0
	c-6.2,12.6-9.6,26.7-9.6,41.6c0,52.2,42.3,94.5,94.5,94.5c37.3,0,69.5-21.6,84.8-52.9l0,0l115.3-230.6h544.1L958.5,1081l0.5-0.2
	c15.3,31.4,47.6,53.1,85,53.1c52.2,0,94.5-42.3,94.5-94.5C1138.4,1020.7,1133,1003.3,1123.7,988.7z M395,658.5l176.1-352.4
	l176.1,352.4H395z"/>
</svg>
