<?xml version="1.0" encoding="utf-8"?>
<!-- Generator: Adobe Illustrator 26.0.2, SVG Export Plug-In . SVG Version: 6.00 Build 0)  -->
<svg version="1.1" id="Livello_1" xmlns="http://www.w3.org/2000/svg" xmlns:xlink="http://www.w3.org/1999/xlink" x="0px" y="0px"
	 width="1161px" height="1133.9px" viewBox="0 0 1161 1133.9" style="enable-background:new 0 0 1161 1133.9;" xml:space="preserve"
	>
<style type="text/css">
	.st0{fill:#FFFFFF;}
	.st1{fill:#FFFFFF;stroke:#FFFFFF;stroke-miterlimit:10;}
	.st2{fill:#FFFFFF;stroke:#FFFFFF;stroke-width:2;stroke-linecap:round;stroke-linejoin:round;stroke-miterlimit:10;}
</style>
<path class="st0" d="M1003.9,1035.9L528,0l-392,1049.9h-0.1c-23.6,49.7-74.2,84-132.8,84h7h238h7c-27,0-50-16.9-59-40.8
	c-4.1-10.9-3.8-22.9,0.3-33.8L346,657.9h336l193.1,400.8c1.8,3.8,2.9,7.9,2.9,12.1c0,0,0,0,0,0.1c0,34.8-28.2,63-63,63h7h336
	C1090.1,1133.9,1030.5,1093.7,1003.9,1035.9z M360,629.9l140-392l168,392H360z"/>
</svg>
