<?xml version="1.0" encoding="utf-8"?>
<!-- Generator: Adobe Illustrator 26.0.2, SVG Export Plug-In . SVG Version: 6.00 Build 0)  -->
<svg version="1.1" id="Livello_1" xmlns="http://www.w3.org/2000/svg" xmlns:xlink="http://www.w3.org/1999/xlink" x="0px" y="0px"
	 width="1134px" height="1133.9px" viewBox="0 0 1134 1133.9" style="enable-background:new 0 0 1134 1133.9;" xml:space="preserve"
	>
<style type="text/css">
	.st0{fill:#FFFFFF;}
	.st1{fill:#FFFFFF;stroke:#FFFFFF;stroke-miterlimit:10;}
	.st2{fill:#FFFFFF;stroke:#FFFFFF;stroke-width:2;stroke-linecap:round;stroke-linejoin:round;stroke-miterlimit:10;}
</style>
<path class="st0" d="M755.7,0C386.4,0,31.4,265.2,8.4,614.5C7.6,641.3,6,666,6,692.8c0,184.9,110.7,343.2,267.6,408.8
	c0.1,0.1,0.2,0.1,0.3,0.1c7.1,3,14.3,5.7,21.6,8.3c19.2,6.2,39.7,9.5,61,9.5c110.7,0,200.5-89.7,200.5-200.5c0-3.7-0.1-7.4-0.3-11
	c-31.6,18.3-68.4,28.8-107.6,28.8c-57.8,0-110.3-22.8-149-59.9c-17.5-16.8-32.1-36.5-43.2-58.3c-7.2-16.5-13.3-33.6-18.2-51.3
	c-0.8-2.9-1.6-5.9-2.3-8.9c-6.2-24.7-9.9-50.4-11-76.7c-0.2-5.2-0.3-10.5-0.3-15.8c0-54,11.3-105.3,31.6-151.8l718.4,482.5V1134
	h157.5V0H755.7z M358.4,374.6c34.7-30.6,73.7-56.4,116-76.3c70.8-28.4,147.6-44.7,225.4-46.2c3.9-0.1,7.8-0.1,11.7-0.1h263.5v536.8
	L358.4,374.6z"/>
</svg>
