<?xml version="1.0" encoding="utf-8"?>
<!-- Generator: Adobe Illustrator 26.0.2, SVG Export Plug-In . SVG Version: 6.00 Build 0)  -->
<svg version="1.1" id="Livello_1" xmlns="http://www.w3.org/2000/svg" xmlns:xlink="http://www.w3.org/1999/xlink" x="0px" y="0px"
	 width="954px" height="1133.9px" viewBox="0 0 954 1133.9" style="enable-background:new 0 0 954 1133.9;" xml:space="preserve">
<style type="text/css">
	.st0{fill:#FFFFFF;}
	.st1{fill:#FFFFFF;stroke:#FFFFFF;stroke-miterlimit:10;}
	.st2{fill:#FFFFFF;stroke:#FFFFFF;stroke-width:2;stroke-linecap:round;stroke-linejoin:round;stroke-miterlimit:10;}
</style>
<path class="st1" d="M332.9,26.1c-49.3,14.7-96.5,34.6-141,56.7c-0.5,4-0.8,8.1-0.8,12.2c0,0,0,0,0,0c0-52.2-42.3-94.5-94.5-94.5
	c-17.2,0-33.4,4.6-47.3,12.6c-5.6,3.3-10.9,7.1-15.7,11.4c5.5,0.6,10.7,1.8,15.7,3.6c27.5,9.7,47.3,36,47.3,66.9v94.5v0v756.2
	c24.8,0,47.3,9.5,64.2,25.1c1.2,1.2,2.5,2.3,3.7,3.6c-1.2-1.2-2.4-2.4-3.7-3.6c-16.9-15.6-39.4-25.1-64.2-25.1V993
	c0,26.1-21.2,47.3-47.3,47.3v0c-8.6,0-16.7-2.3-23.6-6.3c-8.5-4.9-15.4-12.5-19.5-21.5c-2.7,8.8-4.2,18.1-4.2,27.8
	c0,24,8.9,45.8,23.6,62.5c6.7,7.7,14.7,14.2,23.6,19.4c13.9,8,30.1,12.6,47.3,12.6c52.2,0,94.5-42.3,94.5-94.5
	c0-7.1-0.8-14.1-2.3-20.8c1.5,6.7,2.3,13.6,2.3,20.8c0-7.1,0.8-14.1,2.3-20.8c-1.5,6.7-2.3,13.6-2.3,20.8
	c0,52.2,42.3,94.5,94.5,94.5c17.2,0,33.4-4.6,47.3-12.6c8.9-5.2,16.9-11.7,23.6-19.4c14.7-16.7,23.6-38.5,23.6-62.5
	c0-9.7-1.5-19-4.2-27.8c-4.1,9-10.9,16.6-19.5,21.5c-7,4-15,6.3-23.6,6.3v0c-26.1,0-47.3-21.2-47.3-47.3v-47.3
	c-24.8,0-47.3,9.5-64.2,25.1c-1.2,1.2-2.5,2.3-3.7,3.6c1.2-1.2,2.4-2.4,3.7-3.6c16.9-15.6,39.4-25.1,64.2-25.1V730
	c15.5,4.5,31.3,8.4,47.3,11.8c7.8,1.7,15.7,3.2,23.6,4.6c7.8,1.4,34.1,5.7,42.1,6.8c30.9,4.3,8.8,1.6,85.3,9l18.7,0.2
	c323.9-6.9,444.7-175,444.7-383.9S784.3-1.2,510.4-0.1l-12,0.6c-40.3,0-79.8,4.9-118.3,13.3c-7.9,1.7-15.8,3.6-23.6,5.7
	c-3.5,0.9-7,1.9-10.5,2.8L332.9,26.1z M480.6,709.4c-35.1,0-68.8-5.6-100.4-15.8c-8-2.6-15.9-5.5-23.6-8.7c-8-3.3-15.9-7-23.6-10.9
	c-16.6-8.5-32.4-18.4-47.3-29.5V124.5c1.6-1.2,3.2-2.4,4.9-3.6c13.4-9.7,27.6-18.4,42.4-25.9c7.7-3.9,15.6-7.6,23.6-10.9
	c7.1-2.9,14.4-5.6,21.7-8.1c0.6-0.2,1.3-0.4,1.9-0.6c13.2-4.3,26.8-7.7,40.6-10.3c19.4-3.6,39.4-5.5,59.8-5.5
	c179.5,0,324.9,145.5,324.9,324.9S660.1,709.4,480.6,709.4z"/>
</svg>
