<?xml version="1.0" encoding="utf-8"?>
<!-- Generator: Adobe Illustrator 26.0.2, SVG Export Plug-In . SVG Version: 6.00 Build 0)  -->
<svg version="1.1" id="Livello_1" xmlns="http://www.w3.org/2000/svg" xmlns:xlink="http://www.w3.org/1999/xlink" x="0px" y="0px"
	 width="936px" height="1133.9px" viewBox="0 0 936 1133.9" style="enable-background:new 0 0 936 1133.9;" xml:space="preserve">
<style type="text/css">
	.st0{fill:#FFFFFF;}
	.st1{fill:#FFFFFF;stroke:#FFFFFF;stroke-miterlimit:10;}
	.st2{fill:#FFFFFF;stroke:#FFFFFF;stroke-width:2;stroke-linecap:round;stroke-linejoin:round;stroke-miterlimit:10;}
</style>
<path class="st0" d="M759.4-0.1H55.6C27.2-0.1,4.1,22.9,4.1,51.4s23.1,51.5,51.5,51.5h51.5v634.4v293.5H55.6
	c-28.5,0-51.5,23.1-51.5,51.5c0,28.5,23.1,51.5,51.5,51.5h51.5h51.5h103.1c28.5,0,51.5-23.1,51.5-51.5c0-28.5-23.1-51.5-51.5-51.5
	h-51.5V737.3c0-8.7,7.1-15.8,15.8-15.8h95.2c37.9,0,75.1-10.3,107.6-29.8l381-228.6c75.3-45.2,122.1-127.8,122.1-215.7v-75.1
	C931.9,77.2,854.5-0.1,759.4-0.1z M828.8,247.5c0,51.8-27.6,100.6-72.1,127.3l-381,228.6c-16.5,9.9-35.3,15.1-54.5,15.1h-95.2
	c-5.4,0-10.6,0.5-15.8,1.2V102.9h549.1c38.3,0,69.4,31.1,69.4,69.4V247.5z"/>
</svg>
