<?xml version="1.0" encoding="utf-8"?>
<!-- Generator: Adobe Illustrator 26.0.2, SVG Export Plug-In . SVG Version: 6.00 Build 0)  -->
<svg version="1.1" id="Livello_1" xmlns="http://www.w3.org/2000/svg" xmlns:xlink="http://www.w3.org/1999/xlink" x="0px" y="0px"
	 width="1525.4px" height="1133.9px" viewBox="0 0 1525.4 1133.9" style="enable-background:new 0 0 1525.4 1133.9;"
	 xml:space="preserve">
<style type="text/css">
	.st0{fill:#FFFFFF;}
	.st1{fill:#FFFFFF;stroke:#FFFFFF;stroke-miterlimit:10;}
	.st2{fill:#FFFFFF;stroke:#FFFFFF;stroke-width:2;stroke-linecap:round;stroke-linejoin:round;stroke-miterlimit:10;}
</style>
<path class="st0" d="M156.3,1134.8c-4,0-7.9-0.1-11.8-0.4c-59.9-4.5-108.7-42.5-130.6-101.7c-44.2-119.6,78.2-336.9,132.9-424.7
	c25.5-40.9,73.4-112.5,141.9-192.1c-20.6-68.9-47.1-132.8-69.5-184.1c-20.1-39.1-32.4-68-39.7-89.8c-0.6-1.4-1.2-2.9-1.7-4.3l0,0
	c0,0,0,0,0,0l0.3-0.1c-12.5-39.5-7.4-54.8-3-68.4c13.1-40,50.3-67.6,93-69c42.5-1.5,82,24.7,97.8,63.8c0,0,0,0,0,0
	c4.6,11.3,11.9,27.6,20.4,46.5c3.1,7,6.4,14.4,9.9,22c16.1,33.1,37.3,72.8,62.7,114.5C589.3,137.7,755.4,42.6,951.6,19.2
	c136.8-16.3,327.7,3.4,453.5,107.5c73.4,60.7,114.8,142,119.9,235.2c6.2,113.6-78.1,224.2-231.3,303.4
	c-209,108.1-535.5,147.1-758.3-22.8c-3.2-2.4-6.4-4.9-9.5-7.4c-1.4,87.3-19.7,175.1-65.2,257C405.4,991.5,280.4,1134.8,156.3,1134.8
	z M616.3,395.5c-6.3,6.2-5.6,12.6-1.1,18.5c6.9,9.1,42.9,42.5,65.9,60.1c132.4,101,347.9,78.2,492.2,3.6
	c86.8-44.9,108.7-79.1,112.3-105.6c4.7-34.5-15.8-61.7-43.7-84.8c-56.3-46.6-165.8-69.4-272.5-56.7
	C836.6,246.5,715.3,298.2,616.3,395.5z"/>
</svg>
