<?xml version="1.0" encoding="utf-8"?>
<!-- Generator: Adobe Illustrator 26.0.2, SVG Export Plug-In . SVG Version: 6.00 Build 0)  -->
<svg version="1.1" id="Livello_1" xmlns="http://www.w3.org/2000/svg" xmlns:xlink="http://www.w3.org/1999/xlink" x="0px" y="0px"
	 width="927px" height="1133.9px" viewBox="0 0 927 1133.9" style="enable-background:new 0 0 927 1133.9;" xml:space="preserve">
<style type="text/css">
	.st0{fill:#FFFFFF;}
	.st1{fill:#FFFFFF;stroke:#FFFFFF;stroke-miterlimit:10;}
	.st2{fill:#FFFFFF;stroke:#FFFFFF;stroke-width:2;stroke-linecap:round;stroke-linejoin:round;stroke-miterlimit:10;}
</style>
<path class="st0" d="M266.3,1134.6H150.6c-81.1,0-147.1-66-147.1-147.1c0-23.2,18.8-42,42-42s42,18.8,42,42c0,34.8,28.3,63,63,63
	h115.7c29.3,0,58.3-9.7,81.7-27.2l440.6-330.4c34.7-26,55.4-67.4,55.4-110.7c0-42.9-34.9-77.9-77.9-77.9H229
	C104.7,504.2,3.5,403.1,3.5,278.7v-54.6C3.5,100.5,104,0,227.6,0h553.3C862,0,927.9,66,927.9,147.1c0,23.2-18.8,42-42,42
	c-23.2,0-42-18.8-42-42c0-34.8-28.3-63-63-63H227.6c-77.2,0-140.1,62.8-140.1,140.1v54.6c0,78,63.5,141.5,141.5,141.5h537
	c89.3,0,161.9,72.6,161.9,161.9c0,69.6-33.3,136.2-89,177.9l-440.6,330.4C360.5,1118.9,313.6,1134.6,266.3,1134.6z"/>
</svg>
