<?xml version="1.0" encoding="utf-8"?>
<!-- Generator: Adobe Illustrator 26.0.2, SVG Export Plug-In . SVG Version: 6.00 Build 0)  -->
<svg version="1.1" id="Livello_1" xmlns="http://www.w3.org/2000/svg" xmlns:xlink="http://www.w3.org/1999/xlink" x="0px" y="0px"
	 width="909px" height="1133.9px" viewBox="0 0 909 1133.9" style="enable-background:new 0 0 909 1133.9;" xml:space="preserve">
<style type="text/css">
	.st0{fill:#FFFFFF;}
	.st1{fill:#FFFFFF;stroke:#FFFFFF;stroke-miterlimit:10;}
	.st2{fill:#FFFFFF;stroke:#FFFFFF;stroke-width:2;stroke-linecap:round;stroke-linejoin:round;stroke-miterlimit:10;}
</style>
<g>
	<path class="st0" d="M906.9,242.5c-45.4,0-88.1,8.7-128.1,26.1c-40.1,17.4-74.8,41.6-104.3,72.6c-29.5,31-52.9,66.6-70.3,106.6
		c-17.4,40.1-26.1,82.8-26.1,128.1c-1.5,77.1-17.4,149.3-47.6,216.6c-30.3,67.3-71.4,126.3-123.6,176.9
		c-52.2,50.7-112.7,90.7-181.4,120.2c-68.8,29.5-141.8,44.2-218.9,44.2V891.2c45.4,0,88.1-8.7,128.1-26.1
		c40-17.4,74.8-40.8,104.3-70.3c29.5-29.5,52.9-64.2,70.3-104.3c17.4-40,26.1-82.8,26.1-128.1c1.5-77.1,17-149.7,46.5-217.7
		c29.5-68,69.5-127.8,120.2-179.2c50.6-51.4,110-91.9,178-121.3c68-29.5,140.6-44.2,217.7-44.2L906.9,242.5z"/>
</g>
</svg>
