<?xml version="1.0" encoding="utf-8"?>
<!-- Generator: Adobe Illustrator 26.0.2, SVG Export Plug-In . SVG Version: 6.00 Build 0)  -->
<svg version="1.1" id="Livello_1" xmlns="http://www.w3.org/2000/svg" xmlns:xlink="http://www.w3.org/1999/xlink" x="0px" y="0px"
	 width="756px" height="1133.9px" viewBox="0 0 756 1133.9" style="enable-background:new 0 0 756 1133.9;" xml:space="preserve">
<style type="text/css">
	.st0{fill:#FFFFFF;}
	.st1{fill:#FFFFFF;stroke:#FFFFFF;stroke-miterlimit:10;}
	.st2{fill:#FFFFFF;stroke:#FFFFFF;stroke-width:2;stroke-linecap:round;stroke-linejoin:round;stroke-miterlimit:10;}
</style>
<g>
	<path class="st0" d="M681.8,612.9c23,25.5,40,53.5,50.9,83.9c11,30.4,16.5,65.8,16.5,106.1c0,96-35.5,175.2-106.5,237.5
		c-71,62.3-159.1,93.5-264.3,93.5c-48.5,0-97-7.5-145.6-22.6c-48.5-15.1-90.4-33.3-125.6-54.8l-32.9,55.9H13L2.2,740.1h62.1
		C77,786,92,827.5,109.1,864.6c17.1,37,39.7,71.6,67.8,103.8c26.5,30.1,57.6,54.1,93.1,72c35.5,17.9,76.7,26.8,123.7,26.8
		c35.2,0,66-4.6,92.3-13.8c26.3-9.2,47.6-22.3,64-39.1c16.3-16.9,28.5-36.7,36.4-59.5c7.9-22.8,11.9-49,11.9-78.6
		c0-43.5-12.3-84-36.8-121.6c-24.5-37.6-61-66.1-109.6-85.5c-33.2-13.2-71.2-27.8-114.2-43.9c-42.9-16-79.9-31.2-111.1-45.4
		c-61.3-27.6-108.9-63.7-142.9-108.4c-34-44.7-50.9-103-50.9-175c0-41.4,8.4-79.9,25.3-115.6C75,145,99,113.1,130.2,85
		c29.6-26.6,64.6-47.4,105-62.4C275.5,7.5,317.6,0,361.5,0c50.1,0,94.9,7.7,134.5,23c39.6,15.3,75.7,33.2,108.4,53.6l31.4-52.1h61.3
		l6.1,360.8h-62.1c-11.2-41.4-23.9-80.9-37.9-118.7c-14.1-37.8-32.3-72-54.8-102.7c-22-29.6-48.8-53.2-80.4-70.9
		c-31.7-17.6-70.5-26.4-116.5-26.4c-48.5,0-89.9,15.6-124.1,46.7c-34.2,31.2-51.3,69.2-51.3,114.2c0,47,11,85.9,32.9,116.8
		c22,30.9,53.9,56.3,95.8,76.2c37.3,17.9,73.9,33.3,109.9,46.4s70.9,26.9,104.6,41.8c30.6,13.3,60.1,28.3,88.5,45.2
		S660.8,590.4,681.8,612.9z"/>
</g>
</svg>
