<?xml version="1.0" encoding="utf-8"?>
<!-- Generator: Adobe Illustrator 26.0.2, SVG Export Plug-In . SVG Version: 6.00 Build 0)  -->
<svg version="1.1" id="Livello_1" xmlns="http://www.w3.org/2000/svg" xmlns:xlink="http://www.w3.org/1999/xlink" x="0px" y="0px"
	 width="810px" height="1133.9px" viewBox="0 0 810 1133.9" style="enable-background:new 0 0 810 1133.9;" xml:space="preserve">
<style type="text/css">
	.st0{fill:#FFFFFF;}
	.st1{fill:#FFFFFF;stroke:#FFFFFF;stroke-miterlimit:10;}
	.st2{fill:#FFFFFF;stroke:#FFFFFF;stroke-width:2;stroke-linecap:round;stroke-linejoin:round;stroke-miterlimit:10;}
</style>
<path class="st0" d="M682.9,453.5h114.9c2.6-18.5,4-37.4,4-56.7C801.9,177.6,624.2,0,405,0S8.1,177.6,8.1,396.9
	c0,19.3,1.4,38.2,4,56.7c5.7,40.1,17.4,78.1,34.1,113.4C109.9,701,246.6,793.7,405,793.7H12.2c27.5,192.4,192.9,340.2,392.8,340.2
	s365.4-147.8,392.8-340.2c2.6-18.5,4-37.4,4-56.7c0-60.9-13.7-118.6-38.2-170.1C743.5,524.5,716.1,486.2,682.9,453.5z"/>
</svg>
