<?xml version="1.0" encoding="utf-8"?>
<!-- Generator: Adobe Illustrator 26.0.2, SVG Export Plug-In . SVG Version: 6.00 Build 0)  -->
<svg version="1.1" id="Livello_1" xmlns="http://www.w3.org/2000/svg" xmlns:xlink="http://www.w3.org/1999/xlink" x="0px" y="0px"
	 width="1327.4px" height="1133.9px" viewBox="0 0 1327.4 1133.9" style="enable-background:new 0 0 1327.4 1133.9;"
	 xml:space="preserve">
<style type="text/css">
	.st0{fill:#FFFFFF;}
	.st1{fill:#FFFFFF;stroke:#FFFFFF;stroke-miterlimit:10;}
	.st2{fill:#FFFFFF;stroke:#FFFFFF;stroke-width:2;stroke-linecap:round;stroke-linejoin:round;stroke-miterlimit:10;}
</style>
<path class="st2" d="M1311.1,119L1311.1,119c-25-102.9-148.5-141.5-236.3-100.3c-0.1,0-4.2,1.6-4.3,1.7c-9,4.4-9.4,4.4-18,9.7
	c-0.1,0-4.2,2.8-4.3,2.8c-37.6,21.6-59.3,44.7-89.5,87.8c-0.1,0.2-3.8,6.1-4,6.3c-0.1,0,0,0,0,0c-81,139-116.2,325.5-150.7,470.8
	c-16.5,71.5-45,216.3-85.1,287.3C568.8,1139.4,222.9,1170,33.9,930.3L0,955.9c197,264.1,609,227.8,758.5-65.8
	c37.1-72.3,56.2-163.8,70.3-232.4c24.7-125.4,44.2-216.5,79.4-319.8c23.1-70.4,36.6-126.2,73.2-185.1l4.2-5.7
	c40.7-61.9,94.1-107.4,164.3-109.2c70.6,0,127.8,57.3,127.8,127.8c-0.6,82.7-80.2,137.7-148.6,168.5h-0.1
	c-30.4,12.4-63.1,20.1-97.4,22l2.7,41c93.8-4.9,177.8-47.3,237.1-112.5c4.6-5.2,9.2-10.5,13.5-15.9c0.2-0.1,0.3-0.3,0.3-0.4
	C1316.2,228.6,1327.1,168.5,1311.1,119z"/>
</svg>
