<?xml version="1.0" encoding="utf-8"?>
<!-- Generator: Adobe Illustrator 26.0.2, SVG Export Plug-In . SVG Version: 6.00 Build 0)  -->
<svg version="1.1" id="Livello_1" xmlns="http://www.w3.org/2000/svg" xmlns:xlink="http://www.w3.org/1999/xlink" x="0px" y="0px"
	 width="657px" height="1133.9px" viewBox="0 0 657 1133.9" style="enable-background:new 0 0 657 1133.9;" xml:space="preserve">
<style type="text/css">
	.st0{fill:#FFFFFF;}
	.st1{fill:#FFFFFF;stroke:#FFFFFF;stroke-miterlimit:10;}
	.st2{fill:#FFFFFF;stroke:#FFFFFF;stroke-width:2;stroke-linecap:round;stroke-linejoin:round;stroke-miterlimit:10;}
</style>
<path class="st0" d="M646.4,43h3.1c0.2,0,0.4-0.2,0.4-0.4V0.4c0-0.2-0.2-0.4-0.4-0.4H501.7c-0.2,0-0.4,0.2-0.4,0.4V43h3.9
	c17.3,0,31.4,14,31.4,31.3l1.7,442.6c0,0.4-0.6,0.6-0.8,0.2L287.2,55.4c-1.6-2.9-1.4-6.5,0.7-9.2c1.7-2.3,4.5-3.4,7.4-3.4l2.9,0
	c0.2,0,0.4-0.2,0.4-0.4V0.4c0-0.2-0.2-0.4-0.4-0.4H7.6C7.3,0,7.1,0.2,7.1,0.4v76.8c0,0.2,0.2,0.4,0.4,0.4L33.9,78l0.1,0
	c5.4,0.1,9.8,4.5,9.8,9.9v971.3c0,17.5-14.2,31.7-31.7,31.7H9c-0.2,0-0.4,0.2-0.4,0.4v42.2c0,0.2,0.2,0.4,0.4,0.4h147.7
	c0.2,0,0.4-0.2,0.4-0.4v-42.2c0-0.2-0.2-0.4-0.4-0.4h-3.1c-17.5,0-31.7-14.2-31.7-31.7V205.4c0-0.4,0.6-0.6,0.8-0.2l413.7,679.6
	c0,0.1,0.1,0.1,0.1,0.2v174.3c0,17.5-14.2,31.7-31.7,31.7h-3.1c-0.2,0-0.4,0.2-0.4,0.4v42.2c0,0.2,0.2,0.4,0.4,0.4h147.7
	c0.2,0,0.4-0.2,0.4-0.4v-42.2c0-0.2-0.2-0.4-0.4-0.4h-3.1c-17.5,0-31.7-14.2-31.7-31.7V74.7C614.7,57.2,628.9,43,646.4,43z"/>
</svg>
